PathFileType	4	(X/Y/Z)	T1_P1_Vision_NoMovement_1_0-649.trc
DataRate	CameraRate	NumFrames	NumMarkers	Units	OrigDataRate	OrigDataStartFrame	OrigNumFrames
60	60	7	27	m	60	0	649
Frame#	Time	RHip			RKnee			RAnkle			RBigToe			RSmallToe			RHeel			LHip			LKnee			LAnkle			LBigToe			LSmallToe			LHeel			Neck			Head			Nose			RShoulder			RElbow			RWrist			RThumb			RIndex			RPinky			LShoulder			LElbow			LWrist			LThumb			LIndex			LPinky		
		X1	Y1	Z1	X2	Y2	Z2	X3	Y3	Z3	X4	Y4	Z4	X5	Y5	Z5	X6	Y6	Z6	X7	Y7	Z7	X8	Y8	Z8	X9	Y9	Z9	X10	Y10	Z10	X11	Y11	Z11	X12	Y12	Z12	X13	Y13	Z13	X14	Y14	Z14	X15	Y15	Z15	X16	Y16	Z16	X17	Y17	Z17	X18	Y18	Z18	X19	Y19	Z19	X20	Y20	Z20	X21	Y21	Z21	X22	Y22	Z22	X23	Y23	Z23	X24	Y24	Z24	X25	Y25	Z25	X26	Y26	Z26	X27	Y27	Z27
1	0.0166666666666666	-65.81607753617453	3789.8616162045737	-552.7431141927101	283.250566905845	3945.7074439208145	-525.5225244449241	639.4070955262886	4153.597554884569	-532.333106362567	689.5954101012546	3991.9083752721813	-440.6460064636256	689.0363974778436	3963.5659873204586	-495.789077288179	687.2162921271868	4195.156968309191	-537.2324428521096	-102.3309522528946	3905.8941299685316	-364.19340102964736	235.94310580344032	4001.1437277959817	-370.7757121522098	631.2085090996555	4278.717396709344	-466.7391164153452	670.6644649073039	3997.4630588451855	-345.0488786417825	683.0130812533557	4127.82474239511	-344.78170669918063	683.9004906619213	4329.894368425464	-503.3623684832055	-679.9297788910391	3686.546802973147	-498.1246594139606	-922.3160552010446	3563.0459610415724	-436.8480632656988	-793.2149087220337	3574.536382777194	-402.3811877903613	-559.0335063164965	3653.2759309186886	-645.0947439844563	-296.32948260027047	3718.244595415305	-702.3860906684071	-26.189439794336835	3643.0395414851555	-614.5120584308975	86.14646331610086	3742.4597049159465	-561.846402684924	112.72918401738318	3721.8740830795396	-557.9959683641212	101.64605917715204	3679.4643840733297	-592.157220592348	-623.0115189293222	3816.499155234589	-389.18767562034407	-386.393924214641	3983.036910752156	-345.79433120881777	-127.98986539360564	3967.3549978675337	-246.8945558745946	9.992106158649868	3893.34709711472	-263.9836035760464	20.27172168012415	3904.690714165055	-207.62218681818803	-1.220714603940054	3975.415106346086	-215.19973020468618
2	0.0333333333333333	-66.19018372459442	3789.5601378716383	-548.8834980725454	281.1302813632836	3963.1943927105403	-526.7147195134262	639.2344190176939	4153.086057423259	-532.3083358341682	696.1919483302455	4024.2316089255255	-453.9791226482297	687.3708230169243	3963.9271489888015	-496.1937189926038	681.7440565214563	4181.316818916917	-534.8432408831228	-105.58365658057204	3903.375719539703	-362.38728959868496	235.87925080504652	4001.416340983534	-370.91812723829537	629.4181724113188	4275.395467032268	-466.88463361844913	671.7113659004004	3999.6581400576683	-345.2692998404658	680.0671244091262	4126.649202833141	-344.2807503148681	679.3817879655032	4326.587312710204	-501.7869994121163	-679.8846116479799	3686.3840305780936	-498.0140525069712	-922.1996203116547	3563.1433936572366	-436.81593828765716	-788.7263342259862	3576.06772850807	-402.60457003569076	-559.3584667798777	3656.8713623170825	-648.2352152894687	-296.4214431607547	3717.8823417932504	-702.089245435801	-26.19000304172834	3642.7718655570525	-614.2966870389522	86.44481057716885	3758.3218876743113	-565.8216552714498	112.06395000392494	3720.002587686611	-560.0495053218904	101.29311554961059	3663.440858376365	-587.9795943740371	-622.0937877557162	3810.4430144569524	-387.8614356325596	-390.913789185432	3980.935541905774	-345.82749733747426	-127.69649494325522	3979.7461211445893	-254.9545986637432	9.617175662755473	3889.110748942505	-260.77924417576475	20.22112903539317	3921.6155778624934	-210.35329031016664	-4.672034815217775	3973.965185716442	-215.5399032505858
3	0.05	-66.4256796341794	3789.3322005327273	-546.5118291971523	279.5640964195544	3968.1020274771317	-524.8554886985127	639.1602151361709	4152.7484719102795	-532.2508100730581	699.0657444337938	4038.357602868401	-459.49908719639325	686.5633857571697	3964.18064078753	-495.9893203993711	679.2114845564506	4177.592702127654	-534.3724765698718	-107.49547136210181	3901.7910664928063	-360.8266804314943	235.85051165438955	4001.568808859913	-370.9856645241363	628.0252236612927	4269.82393053854	-465.2895895613034	671.828969102976	4000.730160165535	-345.04362977823234	677.7313809656139	4125.545372591153	-343.97301484021796	675.5269697389174	4324.285745299194	-500.6608775375759	-679.8533003447387	3686.277434838751	-497.9415954498357	-922.159652567196	3563.202770702765	-436.81174834851964	-786.1115906180002	3576.8923172223863	-402.7246484013807	-559.305963854879	3656.7442148244654	-648.1841702164505	-296.3586144277299	3717.72751951801	-701.9454561063831	-26.198258367140937	3642.640000099749	-614.1708357994169	86.61966794886848	3768.052345698155	-568.3195263119935	111.2684757467468	3719.6758366834383	-560.9201709925869	101.10045908546313	3654.551421051862	-585.6086366087319	-621.6541974129244	3807.5837483023906	-387.288988515275	-393.0132424256723	3980.088956797712	-345.9608951931127	-127.63986778095664	3987.198271124639	-259.83214159135593	9.438537060124121	3887.2363243667423	-259.33195796966675	20.190794095917937	3931.6061527304723	-211.8787654629912	-6.780763050238512	3973.284736283534	-215.81736763081113
4	0.0666666666666666	-66.51080998506667	3789.1674597874176	-545.7401557417714	277.84063973059267	3956.906053000485	-518.6353209264272	638.9473863927952	4152.449987293708	-532.183878826414	697.2136232575768	4030.9130338989607	-455.90950588749024	686.0033138677863	3963.821733992486	-494.75439609269984	679.0492588936793	4180.933146538489	-535.1339445510289	-107.67228703279008	3901.5375494293817	-360.2643499838085	235.85470055536186	4001.5504147852953	-370.9528823890131	627.2590622345031	4262.995616483982	-462.11517536996513	671.4001884534496	4000.0592826225807	-344.1658987231207	676.707310571293	4124.84254227803	-343.848588545333	673.6849823235675	4323.587074599289	-500.28873161329693	-679.8409597271753	3686.226306454059	-497.9119910159941	-922.1868867438967	3563.207918410975	-436.82574918957215	-785.4433722114554	3577.020484381149	-402.7489051204184	-559.0676600697573	3654.690576932234	-646.4656366375159	-295.7943930445197	3718.0236132551768	-702.0737740837726	-26.201343623137227	3642.689276654475	-614.1645244551682	86.67515688045538	3771.139508912167	-569.2092940972973	110.9563219733489	3722.3115651725443	-561.1205368362863	101.11142126049	3654.267002776446	-585.4373570863969	-621.3102851897266	3805.3802658621416	-386.9823665819796	-392.94023828150324	3980.319266671568	-346.1163841898255	-128.07020034839326	3989.184526725503	-261.2835289527479	9.50627956560236	3888.601738390403	-260.21698972152905	20.128246595165976	3933.3605222273636	-211.9968131111538	-7.428164189338122	3973.3477301226485	-216.00413990745153
5	0.0833333333333333	-66.51944572822023	3789.046064674837	-545.7729895051599	275.9543116315922	3939.086292142125	-510.66467188317614	638.0790930211901	4151.927641783755	-532.1932010894486	692.5040292130496	4014.0743826030953	-448.55652936511	685.0517052616808	3962.860896553584	-492.91689052150775	678.3830373989373	4180.4609671333565	-534.8793187382571	-106.65219354572002	3902.3778838206026	-361.1100197045405	235.86944130905204	4001.4268882716483	-370.8509529439025	626.5108195988417	4258.086686161929	-459.4508909801491	670.7760616902423	3996.8658278018083	-343.07768362785976	676.629498059664	4124.4780249286505	-343.7325686088956	674.2501653876503	4324.1939002727395	-500.6799311641734	-679.845221967619	3686.198627622272	-497.9046871513623	-922.2232974956015	3563.179898578199	-436.829924154354	-785.814589604433	3576.8558227565254	-402.7364244929422	-559.0785824033817	3654.8828233312242	-646.641298773191	-294.45771100791524	3718.8867125190636	-702.502278062811	-26.193577575733293	3642.8128983152274	-614.2211213624641	86.62651413870275	3770.409276205242	-568.8800591317563	111.42937751668288	3727.0429092209697	-561.4424511378173	101.23255471691277	3658.6612920422626	-586.484498382311	-620.8328185975897	3802.2860610764246	-386.5648934637673	-392.28100049604416	3980.7658951066633	-346.1973795249377	-129.03111474158095	3988.321614921524	-261.0666026387493	9.695149021425543	3891.778274021972	-262.338125433552	20.036608036558864	3929.9804160886592	-211.49065954262488	-7.252081560987174	3973.673706387019	-216.11981458179665
6	0.1	-66.50711845422822	3788.998546763415	-545.9787929976942	276.2156924058527	3930.5740914621856	-506.51874111453924	636.4466348408033	4151.319169753608	-532.3506545350507	688.0793330773141	4003.851256158661	-443.7221234182581	683.9113983232041	3961.912525625685	-491.26084083400525	675.8952841324506	4172.900145590618	-532.9784196248568	-105.3648337111364	3903.6294598034906	-362.60401709043884	235.86010300578081	4001.334106990811	-370.74321449576973	624.7680295472973	4256.759881634941	-458.93731820481014	669.503750659968	3991.6655624455097	-342.6418497153608	675.9362088814397	4123.827571904299	-343.4870031052007	675.6028637024771	4325.071120990004	-501.5928703457965	-679.8587773640555	3686.181776338034	-497.9067076107181	-922.2328966747276	3563.167959137695	-436.81557330836915	-786.6397637941027	3576.6863237747666	-402.7334977277678	-559.4683253941123	3658.554012967547	-649.7707210456182	-292.70620671673964	3720.0297990648405	-703.0721942052442	-26.18119580548697	3642.7749924416707	-614.2371169758685	86.39469653969542	3767.223007350417	-566.9037843030467	111.6551911167312	3729.3674564872836	-561.3489486647146	101.31032440939316	3662.0430192822696	-587.3094253852416	-620.4977102156518	3800.007680269877	-386.0737277169837	-391.8838423208184	3980.994719607717	-346.2142214013985	-130.17743659952373	3987.0181852534415	-260.631920543024	9.950585310150876	3896.0053397480915	-265.114569054528	20.052584637483342	3926.667084322107	-211.9068857310066	-6.655429774964088	3974.100861737903	-216.250780332627
7	0.1166666666666666	-66.48523182842834	3789.042207132221	-546.145610698996	280.39832122958074	3939.180966459019	-509.5151731744438	635.0735224844422	4151.279322014496	-532.5994819430972	687.0571604208212	4008.2569246716143	-444.4677303847136	683.15357039236	3961.599881222307	-490.4994669867564	673.1996645967293	4165.287668182828	-531.0769520254985	-104.41222774405641	3904.6045438152087	-363.6759939595982	235.77884551391244	4001.3627623494576	-370.7273846417	622.1313189783446	4257.652139178472	-459.8422728771818	668.0365632852618	3988.3239861474817	-343.5055205575305	673.8729928118671	4122.670534451897	-343.1393570526099	675.7661224366396	4325.324156458342	-502.57170030626713	-679.870930972405	3686.1836135815815	-497.92896813741186	-922.2162276765185	3563.198595335022	-436.7900721516452	-787.545356854273	3576.6674499700466	-402.77521145489305	-559.9189830463779	3662.66363240485	-653.2687744196563	-291.3334445379412	3720.9324090136	-703.5227568018925	-26.163146855828074	3642.3560484896075	-614.1517726428782	85.93854745155818	3761.526700894064	-562.7648346519278	110.55223923228509	3726.0620940630993	-560.1830739939925	101.28513748684344	3662.253053495601	-587.3841457179578	-620.0743301178118	3796.739368401983	-384.4083898002984	-391.7851680870949	3981.0058473326	-346.2131219182261	-131.13661600742842	3986.2760640742845	-260.4808884403617	10.36700450395834	3902.301978156476	-269.37095969273724	20.300524960549467	3929.3762926523445	-214.7867368485648	-5.774907080670853	3974.7484716524486	-216.4740114536018
